<svg viewBox="0 0 24 24" fill="none" xmlns="http://www.w3.org/2000/svg">
    <g id="Icon">
        <path
            id="Vector"
            fill-rule="evenodd"
            clip-rule="evenodd"
            d="M11.1602 17C14.4739 17 17.1602 14.3137 17.1602 11C17.1602 7.68629 14.4739 5 11.1602 5C7.84645 5 5.16016 7.68629 5.16016 11C5.16016 14.3137 7.84645 17 11.1602 17ZM11.1602 19C12.6438 19 14.0331 18.5961 15.2241 17.8924L17.6098 20.2781C18.3909 21.0592 19.6572 21.0592 20.4383 20.2781C21.2193 19.4971 21.2193 18.2307 20.4383 17.4497L18.0525 15.0639C18.7563 13.8729 19.1602 12.4836 19.1602 11C19.1602 6.58172 15.5784 3 11.1602 3C6.74188 3 3.16016 6.58172 3.16016 11C3.16016 15.4183 6.74188 19 11.1602 19ZM14.3713 11.8944C15.1083 11.5259 15.1084 10.4741 14.3713 10.1055L9.60737 7.72356C8.94247 7.39111 8.16016 7.87461 8.16016 8.61799L8.16016 13.3819C8.16016 14.1253 8.94247 14.6088 9.60737 14.2763L14.3713 11.8944Z"
            fill="currentColor"
        />
    </g>
</svg>
